<svg width="32" height="32" viewBox="0 0 32 32" fill="none" xmlns="http://www.w3.org/2000/svg">
<rect width="32" height="32" fill="black" style="fill:black;fill-opacity:1;"/>
<path d="M15.5831 28C9.30669 27.7611 4.26322 22.6996 4.00054 16.5105C7.9889 16.5931 15.3026 20.3255 15.5831 28Z" fill="white" style="fill:white;fill-opacity:1;"/>
<path d="M28 17.577C27.2461 23.2289 22.4949 27.7023 16.654 27.9937C17.0894 19.6508 24.7034 17.5124 28 17.577Z" fill="white" style="fill:white;fill-opacity:1;"/>
<path d="M16.4909 4.00459C22.411 4.2201 27.2385 8.72617 27.9998 14.4259C20.4207 14.2626 16.5859 7.78775 16.4909 4.00459Z" fill="white" style="fill:white;fill-opacity:1;"/>
<path d="M4 15.5084C4.25875 9.25215 9.40094 4.15181 15.7554 4C15.662 7.87959 11.4691 15.0684 4 15.5084Z" fill="white" style="fill:white;fill-opacity:1;"/>
</svg>
